<svg xmlns="http://www.w3.org/2000/svg" viewBox="0 0 1080 1080" role="img" aria-labelledby="title desc">
  <title id="title">旅人教育课程插画</title>
  <desc id="desc">蓝色圆形背景中手持书本、撑伞的人物线稿</desc>
  <rect width="1080" height="1080" fill="#ffffff"/>
  <circle cx="515" cy="570" r="438" fill="#a9d1eb"/>
  <g fill="none" stroke="#ffffff" stroke-width="9" stroke-linecap="round" stroke-linejoin="round">
    <ellipse cx="690" cy="270" rx="355" ry="176" transform="rotate(19 690 270)"/>
    <path d="M670 350 935 170M670 350 1008 266M670 350 1010 388M670 350 926 505M670 350 798 549M670 350 702 548M670 350 585 522M670 350 479 458M670 350 400 365M670 350 382 258M670 350 455 166M670 350 560 102M670 350 662 86"/>
    <circle cx="670" cy="350" r="22"/>
    <path d="M675 374c-50 58-82 130-96 222"/>
    <path d="M610 416c-48 7-87 46-93 94-4 35 8 67 29 88"/>
    <path d="M650 398c45-12 94 8 118 49 22 38 17 86-12 120"/>
    <path d="M594 465c-38 18-61 58-55 100 4 35 27 66 59 80"/>
    <path d="M630 390c-8 51-48 94-99 105"/>
    <path d="M670 405c22 42 61 71 108 78"/>
    <path d="M614 444c-10 42-34 74-73 96"/>
    <path d="M670 538c-37 16-63 50-70 90"/>
    <path d="M725 532c46 52 66 126 52 220"/>
    <path d="M596 625c-58 76-91 170-101 282"/>
    <path d="M748 604c70 86 106 190 109 312"/>
    <path d="M567 702c58 42 135 57 216 42"/>
    <path d="M548 780c71 36 154 43 250 22"/>
    <path d="M450 708c-42 26-67 71-69 136"/>
    <path d="M414 725c59 23 108 54 147 92"/>
    <path d="M270 680 459 815"/>
    <path d="M220 750 402 890"/>
    <path d="M220 750l50-70 189 135-57 75z"/>
    <path d="M286 714c36 15 77 43 123 82"/>
    <path d="M602 458c22-4 44 1 64 16"/>
    <path d="M617 505c28-5 57 0 86 16"/>
    <path d="M700 360c8 16 9 35 3 54"/>
  </g>
  <g fill="#a9d1eb" stroke="#ffffff" stroke-width="7" stroke-linejoin="round">
    <path d="M725 410c13-18 38-17 49 1 17-8 38 3 41 22 20 2 34 20 29 40 14 12 13 34-1 47 2 24-20 42-43 35-12 18-37 22-54 9-21 11-47 2-57-19-20-1-36-18-35-39-16-12-19-35-6-51-4-22 15-43 38-40 9-13 24-18 39-5z"/>
  </g>
</svg>
